<svg width="371" height="494" viewBox="0 0 371 494" fill="none" xmlns="http://www.w3.org/2000/svg">
<path d="M354.51 67.2877C325.737 50.7365 283.752 13.3434 243.142 35.0545C215.581 49.7898 199.347 70.5825 183.433 99.7078C169.387 125.414 201.254 150.562 215.194 158.581C239.831 172.754 263.388 169.644 294.126 156.867C313.368 148.869 340.797 127.259 352.578 106.779C357.808 97.6877 365.79 78.2882 356.464 72.9234C336.942 61.6934 317.42 50.4635 297.898 39.2336C281.042 29.5367 263.948 17.7673 243.974 35.2821C226.056 50.9936 204.729 62.6874 192.208 84.454C178.17 108.856 185.993 132.761 203.621 142.901C217.202 150.714 217.848 154.341 205.767 168.948C193.305 184.015 181.31 197.704 169.684 213.608C134.022 262.386 103.25 311.362 72.3219 365.127C65.6723 376.686 32.3287 421.972 45.0317 430.634C52.4174 435.67 62.2162 443.379 71.4564 441.574C75.8939 440.707 66.6001 434.361 65.4872 429.869C64.4662 425.749 55.3669 423.045 52.1829 421.214C39.8622 414.126 31.6556 430.815 43.7347 438.911C53.2333 445.277 55.6808 459.094 67.5192 446.076C87.7626 423.817 109.137 391.461 125.015 363.858C146.189 327.05 169.625 292.331 190.991 255.189C204.763 231.249 225.531 189.263 249.83 183.017" stroke="white"/>
<path d="M236.824 193.581C247.866 179.665 259.687 169.185 273.238 160.391" stroke="white"/>
<path d="M319.523 70.3673C304.537 61.7468 291.6 50.4988 276.705 41.9307C265.82 35.6693 252.144 37.8245 240.352 46.7065C225.568 57.8421 187.403 97.0456 204.258 114.531C208.49 118.92 210.69 123.833 216.17 126.985C221.822 130.236 227.473 133.488 233.125 136.739C244.943 143.537 262.147 143.368 276.66 134.72C292.474 125.296 308.614 117.272 319.263 98.7598C321.982 94.0322 328.887 85.2911 329.711 80.0333C330.666 73.9354 320.561 70.31 316.505 70.5339" stroke="white"/>
</svg>
